<?xml version="1.0" encoding="UTF-8"?>
<svg id="Layer_2" data-name="Layer 2" xmlns="http://www.w3.org/2000/svg" viewBox="0 0 1200 900">
  <defs>
    <style>
      .cls-1 {
        fill: #231f20;
      }
    </style>
  </defs>
  <g>
    <path class="cls-1" d="M768.19,261.46v-14.37h2.63v6.54h.04l5.42-6.54h3.26l-5.99,7.12,6.49,7.25h-3.37l-5.81-6.49h-.04v6.49h-2.63Z"/>
    <path class="cls-1" d="M792.72,251.41c0,1-.28,1.85-.83,2.55s-1.41,1.22-2.57,1.55v.04l4.27,5.91h-3.16l-3.91-5.56h-1.8v5.56h-2.63v-14.37h4.37c.72,0,1.4.04,2.02.12s1.16.21,1.6.37c.84.32,1.5.8,1.96,1.43.46.63.69,1.43.69,2.39ZM786.02,253.7c.6,0,1.11-.03,1.53-.08s.77-.13,1.06-.24c.53-.2.9-.47,1.1-.82s.31-.75.31-1.2c0-.39-.08-.73-.24-1.03-.16-.3-.44-.53-.82-.7-.25-.11-.57-.2-.95-.25-.38-.05-.85-.08-1.41-.08h-1.88v4.4h1.3Z"/>
    <path class="cls-1" d="M798.53,259.26h7.07v2.2h-9.7v-14.37h9.31v2.2h-6.68v3.72h5.74v2.2h-5.74v4.05Z"/>
    <path class="cls-1" d="M816.61,257.8h-5.41l-1.41,3.66h-2.8l5.7-14.37h2.41l5.7,14.37h-2.78l-1.41-3.66ZM813.89,250.55c-.5,1.5-.95,2.76-1.34,3.77l-.49,1.28h3.71l-.49-1.28c-.39-1.02-.84-2.27-1.34-3.77h-.04Z"/>
    <path class="cls-1" d="M827.54,261.46h-2.63v-12.17h-4.64v-2.2h11.9v2.2h-4.63v12.17Z"/>
    <path class="cls-1" d="M836.84,259.26h7.07v2.2h-9.7v-14.37h9.31v2.2h-6.68v3.72h5.74v2.2h-5.74v4.05Z"/>
    <path class="cls-1" d="M853.76,257.34c0-.37-.09-.66-.27-.89s-.42-.41-.73-.55c-.31-.14-.65-.26-1.04-.35-.38-.09-.79-.18-1.21-.26-.56-.12-1.09-.27-1.6-.44-.51-.17-.96-.4-1.34-.7-.39-.3-.69-.67-.92-1.13-.23-.46-.34-1.03-.34-1.72,0-.76.13-1.42.4-1.98.26-.56.62-1.03,1.08-1.4.45-.37.99-.64,1.6-.83.61-.18,1.3-.27,2.07-.27s1.54.08,2.31.23,1.44.34,2,.58v2.26c-.75-.29-1.46-.51-2.14-.64-.68-.13-1.33-.2-1.93-.2-.87,0-1.53.16-2,.47-.47.31-.7.79-.7,1.42,0,.37.08.67.23.9.15.24.36.43.63.59s.57.28.91.37c.34.09.71.18,1.1.26.61.13,1.19.28,1.75.45.55.17,1.05.4,1.48.7s.77.69,1.02,1.18c.25.48.38,1.1.38,1.85s-.14,1.44-.43,2.01c-.29.57-.69,1.03-1.22,1.4-.53.37-1.17.64-1.92.82-.75.18-1.58.27-2.47.27-.78,0-1.55-.08-2.3-.23-.76-.15-1.38-.37-1.88-.65v-2.22c.71.31,1.4.53,2.07.67s1.37.21,2.08.21c.42,0,.82-.03,1.22-.1.4-.07.76-.18,1.08-.35s.57-.39.77-.67c.19-.28.29-.63.29-1.05Z"/>
  </g>
  <path d="M895.95,258.34c-3.57-30.73-23.83-56.59-52.88-67.47l-5.67-2.12,53.76-56.36h-17.09c-9.38,0-18.21,3.65-24.84,10.29l-46.43,46.43v-47.88c0-5.59-4.53-10.11-10.11-10.11h-20.44v99.13c5.1-5.66,11.32-10.3,18.24-13.52l1.47-.68c-.09.64-.15,1.28-.15,1.95,0,7.61,6.17,13.79,13.79,13.79s13.79-6.17,13.79-13.79c0-2.3-.57-4.45-1.56-6.36,25.56,1.63,47.2,20.66,51.87,45.9l.02.1c.16.85.35,1.68.57,2.5h25.86s.02,0,.02-.02l-.2-1.76Z"/>
  <path d="M867.01,196.9c2.25,2.25,5.89,2.25,8.14,0l1.58-1.58v7.98h0c4.5,0,8.16-3.55,8.36-8l5.66,5.66c3.27-3.27,3.27-8.58,0-11.85l-3.91-3.91,9.83-9.83c-3.18-3.18-8.28-3.26-11.57-.25v-8.01h-2.62c-3.18,0-5.76,2.58-5.76,5.76v2.23l-5.65-5.65-1.85,1.85c-2.25,2.25-2.25,5.89,0,8.14l5.77,5.77-9.83,9.83,1.85,1.85Z"/>
</svg>